<svg width="40" height="40" viewBox="0 0 40 40" fill="none" xmlns="http://www.w3.org/2000/svg">
<path d="M36.95 39.11C38.14 39.11 39.11 38.14 39.11 36.95V2.16C39.11 0.97 38.14 0 36.95 0H2.16C0.97 0 0 0.97 0 2.16V36.96C0 38.15 0.97 39.12 2.16 39.12H36.95V39.11Z" fill="#3C5A99"/>
<path d="M26.9898 39.1102V23.9702H32.0698L32.8298 18.0702H26.9798V14.3002C26.9798 12.5902 27.4498 11.4302 29.9098 11.4302H33.0398V6.14016C32.4998 6.07016 30.6398 5.91016 28.4898 5.91016C23.9798 5.91016 20.8998 8.66016 20.8998 13.7102V18.0602H15.7998V23.9602H20.8998V39.1102H26.9898Z" fill="white"/>
</svg>
