<svg width="35" height="35" viewBox="0 0 35 35" fill="none" xmlns="http://www.w3.org/2000/svg">
<path d="M34.9974 35C34.0994 35 33.2022 35 32.2794 35C32.1698 30.3442 30.3652 26.5017 26.7893 23.5522C23.9043 21.1729 20.5425 20.1002 16.8109 20.2534C14.2726 20.3579 11.9081 21.0925 9.75076 22.4418C7.58659 23.7962 5.8633 25.5865 4.60999 27.8142C3.36269 30.03 2.76 32.4221 2.73175 34.9795C1.81917 34.9795 0.927135 34.9795 0 34.9795C0.0393797 31.262 1.08123 27.8836 3.2377 24.8673C5.39074 21.8553 8.22865 19.7312 11.7489 18.4606C11.6478 18.375 11.5853 18.3159 11.5169 18.2646C8.1088 15.7235 6.60295 11.5479 7.76979 7.44435C8.84331 3.66866 11.3782 1.29195 15.174 0.285103C15.7091 0.142979 16.2681 0.0924658 16.8168 0C17.2723 0 17.7286 0 18.184 0C18.7319 0.0924658 19.2918 0.142979 19.8268 0.285103C23.6227 1.29281 26.1875 3.66181 27.2225 7.44777C28.3054 11.4075 27.2037 14.8399 24.2228 17.661C23.93 17.9384 23.6004 18.1764 23.2648 18.4529C23.365 18.4983 23.4335 18.5351 23.5063 18.5608C25.8733 19.4238 27.9562 20.7423 29.7479 22.5094C32.4035 25.1293 34.0806 28.2731 34.7261 31.9546C34.8433 32.6233 34.9101 33.3014 35 33.9752C34.9974 34.3159 34.9974 34.6584 34.9974 35ZM17.4974 2.73545C13.4447 2.73716 10.1317 6.04281 10.118 10.1019C10.1035 14.161 13.4362 17.5009 17.5009 17.4991C21.5535 17.4974 24.8666 14.1918 24.8803 10.1327C24.894 6.07363 21.5612 2.73373 17.4974 2.73545Z" fill="#9D7B30"/>
</svg>
