<svg width="181" height="42" viewBox="0 0 181 42" fill="none" xmlns="http://www.w3.org/2000/svg">
<path d="M65.4143 4.10072H71.1814C72.2197 4.10072 73.2165 4.29799 74.1658 4.6985C75.1151 5.099 75.9636 5.66091 76.7053 6.39019C77.4291 7.14339 77.9868 7.99222 78.3844 8.94866C78.776 9.9051 78.9777 10.9094 78.9777 11.9555C78.9777 13.0315 78.7819 14.0357 78.3844 14.9802C77.9868 15.9247 77.4291 16.7735 76.7053 17.5207C75.9577 18.25 75.1151 18.8119 74.1658 19.2124C73.2165 19.6129 72.2197 19.8102 71.1814 19.8102H68.636L66.9747 23.9109H71.1814C72.8071 23.9109 74.3438 23.6001 75.7915 22.9724C77.2392 22.3448 78.4971 21.4899 79.571 20.4139C80.6449 19.332 81.4934 18.0647 82.1105 16.6061C82.7335 15.1476 83.042 13.5993 83.042 11.9614C83.042 10.3235 82.7335 8.77531 82.1105 7.31674C81.4875 5.85817 80.639 4.5909 79.571 3.50893C78.4971 2.42696 77.2392 1.57214 75.7915 0.950459C74.3438 0.31682 72.8071 0 71.1814 0H61.35V23.9109H65.4202V4.10072H65.4143Z" fill="white"/>
<path d="M89.1474 14.0058H99.0144V23.9109H103.079V0H99.0144V9.9051H89.1474V0H85.0771V23.9109H89.1474V14.0058Z" fill="white"/>
<path d="M121.905 23.9109L126.788 7.07165L132.045 23.9109H136.281L143.193 0H138.957L134.11 16.8393L128.853 0H124.587L119.739 16.8393L114.482 0H110.21L117.668 23.9109H121.905Z" fill="white"/>
<path d="M149.572 0L138.856 23.9109H143.336L145.163 19.8102H154.995L153.161 15.7155H146.991L151.808 4.98543L156.626 15.7155L158.454 19.8102L160.281 23.9109H164.761L154.045 0H149.572Z" fill="white"/>
<path d="M176.182 0L169.436 10.8316L162.69 0H157.878L167.401 15.2731V23.9109H171.471V15.2731L171.845 14.6873L181 0H176.182Z" fill="white"/>
<path d="M27.2812 41.4379C27.2752 41.426 27.2752 41.42 27.2693 41.408C27.2278 41.3064 27.1862 41.2048 27.1447 41.1091C27.1032 41.0015 27.0557 40.8999 27.0082 40.7983C26.9549 40.6907 26.9074 40.5951 26.854 40.4934C26.8125 40.4157 26.7709 40.338 26.7294 40.2603C26.676 40.1706 26.6285 40.087 26.5811 40.0033C26.0293 39.0767 25.3291 38.2458 24.5103 37.5524C24.4213 37.4747 24.3264 37.397 24.2374 37.3252C24.2374 37.3252 24.2374 37.3252 24.2315 37.3193C24.1484 37.2535 24.0594 37.1878 23.9704 37.122C23.8636 37.0443 23.7628 36.9726 23.656 36.9008C23.561 36.8411 23.4661 36.7753 23.3712 36.7155C23.2822 36.6617 23.1991 36.6079 23.1101 36.5601C22.9914 36.4884 22.8728 36.4226 22.7541 36.3628C22.6473 36.309 22.5464 36.2552 22.4337 36.2014C22.3684 36.1715 22.3032 36.1417 22.2438 36.1118C22.1608 36.0699 22.0718 36.0341 21.9887 35.9982C21.8997 35.9623 21.8048 35.9205 21.7098 35.8846C21.5081 35.8069 21.3064 35.7352 21.0987 35.6754C21.0157 35.6455 20.9267 35.6216 20.8436 35.5977C20.3452 35.4602 19.8349 35.3646 19.3128 35.3048C18.9687 35.2689 18.6305 35.251 18.2804 35.251C18.049 35.251 17.8295 35.257 17.604 35.2809C17.4735 35.2928 17.3489 35.2988 17.2243 35.3167C17.1116 35.3287 16.9929 35.3466 16.8802 35.3586C16.8149 35.3646 16.7437 35.3765 16.6784 35.3885C16.5004 35.4184 16.3284 35.4482 16.1563 35.4901C16.0436 35.514 15.9309 35.5439 15.8241 35.5738C15.7469 35.5917 15.6698 35.6156 15.5986 35.6395C15.4265 35.6814 15.2663 35.7412 15.1061 35.7949C15.029 35.8248 14.9459 35.8547 14.8688 35.8846C14.7323 35.9384 14.5959 35.9922 14.4653 36.046C14.3823 36.0819 14.3051 36.1177 14.2221 36.1536C14.1865 36.1715 14.1568 36.1835 14.1212 36.2014C14.0559 36.2313 13.9847 36.2672 13.9195 36.3031C13.7771 36.3748 13.6406 36.4525 13.5041 36.5302C13.4211 36.5721 13.3439 36.6199 13.2609 36.6737C13.249 36.6797 13.2312 36.6856 13.2253 36.6976C13.1422 36.7514 13.0532 36.8052 12.9702 36.859C12.8515 36.9367 12.7328 37.0204 12.6201 37.1041C12.543 37.1579 12.4718 37.2176 12.3946 37.2774C12.2997 37.3432 12.2107 37.4209 12.1158 37.4986C12.0268 37.5763 11.9378 37.648 11.8547 37.7258C11.6826 37.8812 11.5165 38.0426 11.3563 38.21C11.113 38.461 10.8876 38.7181 10.674 38.993C10.6028 39.0827 10.5316 39.1783 10.4663 39.274C10.401 39.3637 10.3299 39.4593 10.2646 39.5609C10.2112 39.6386 10.1578 39.7223 10.1044 39.806C10.0807 39.8419 10.0629 39.8718 10.0391 39.9076C9.93232 40.087 9.82552 40.2723 9.73059 40.4576C9.68906 40.5413 9.64753 40.619 9.60599 40.7027C9.48733 40.9418 9.38053 41.1928 9.27966 41.4439C9.24406 41.5395 9.20846 41.6352 9.17286 41.7368C9.17286 41.7428 9.16693 41.7488 9.16693 41.7488H27.3702C27.3702 41.7428 27.3642 41.7368 27.3642 41.7249C27.3524 41.6232 27.3168 41.5276 27.2812 41.4379Z" fill="white"/>
<path d="M27.6193 0H20.624C20.6656 0.543973 20.713 1.08197 20.7546 1.61399C20.7961 2.05036 20.8376 2.48076 20.8792 2.90518C20.9029 3.1682 20.9326 3.42524 20.9563 3.68228C20.9919 4.02301 21.0275 4.35776 21.069 4.69252C21.1521 5.43973 21.2411 6.17499 21.3301 6.8983C21.4547 7.84278 21.5852 8.77531 21.7217 9.68392C21.781 10.0844 21.8463 10.479 21.9056 10.8795C21.9115 10.8914 21.9115 10.8974 21.9115 10.9153C21.9709 11.2919 22.0361 11.6625 22.1014 12.0332C22.1667 12.4277 22.2319 12.8103 22.3031 13.1869C22.3387 13.3961 22.3803 13.6113 22.4159 13.8145C22.671 15.1595 22.938 16.4567 23.2169 17.712C23.2762 17.9691 23.3296 18.2201 23.3889 18.4712C23.4542 18.7521 23.5195 19.0271 23.5788 19.3021C23.7093 19.852 23.8399 20.39 23.9763 20.9221C24.0356 21.1432 24.089 21.3704 24.1484 21.5916C24.4272 22.6735 24.718 23.7137 25.0146 24.7119C25.2104 25.3874 25.4122 26.045 25.6139 26.6846C25.9877 27.8682 26.3674 28.98 26.7353 30.0261C26.8065 30.2294 26.8777 30.4266 26.9489 30.6239C27.1625 31.2157 27.3761 31.7836 27.5897 32.3335C27.6609 32.5188 27.7321 32.6982 27.8033 32.8775C27.8567 33.021 27.916 33.1585 27.9694 33.296C28.0525 33.5052 28.1355 33.7084 28.2186 33.9117C28.3195 34.1508 28.4144 34.3899 28.5093 34.617C28.5983 34.8263 28.6873 35.0355 28.7763 35.2327C28.9603 35.6572 29.1383 36.0696 29.3163 36.4522C29.3934 36.6196 29.4646 36.781 29.5417 36.9424C29.6248 37.1217 29.7019 37.2891 29.779 37.4565C29.8562 37.6298 29.9333 37.7852 30.0104 37.9466C30.0876 38.108 30.1647 38.2575 30.2359 38.4129C30.313 38.5683 30.3842 38.7118 30.4495 38.8552C30.5207 38.9987 30.5919 39.1362 30.6572 39.2677C30.8589 39.6682 31.0488 40.0269 31.2268 40.3497C31.4344 40.7382 31.6243 41.067 31.7786 41.342C35.825 40.5051 39.4384 38.4846 42.2508 35.6512C46.0006 31.8733 48.3205 26.6547 48.3205 20.8922C48.3383 9.34319 39.0646 0 27.6193 0Z" fill="white"/>
<path d="M12.2581 22.2491C12.3353 21.9562 12.4124 21.6573 12.4895 21.3584C12.7862 20.2346 13.065 19.063 13.338 17.8495C13.4092 17.5267 13.4804 17.2039 13.5516 16.8811C13.6228 16.5523 13.694 16.2295 13.7592 15.8948C13.8482 15.4524 13.9372 15.0101 14.0262 14.5617C14.1034 14.1672 14.1805 13.7667 14.2517 13.3602C14.3288 12.9597 14.4 12.5532 14.4653 12.1408C14.5365 11.7283 14.6077 11.3099 14.673 10.8914C14.8094 10.0545 14.94 9.19973 15.0646 8.32698C15.1239 7.8906 15.1892 7.45423 15.2426 7.0059C15.296 6.60539 15.3494 6.19891 15.3968 5.7984C15.4087 5.72667 15.4146 5.64895 15.4265 5.5832C15.4799 5.15878 15.5273 4.72838 15.5748 4.29799C15.6104 3.98715 15.6401 3.6763 15.6757 3.36546C15.7113 3.03669 15.7409 2.70193 15.7765 2.3612C15.8062 2.04438 15.8359 1.72159 15.8596 1.40477C15.8952 1.05208 15.9189 0.699394 15.9486 0.346708C15.9545 0.227154 15.9605 0.113577 15.9723 0H0V41.7425H4.53301C5.04327 40.8996 6.11126 39.0047 7.41065 36.0935C7.52338 35.8365 7.64204 35.5735 7.76071 35.2985C9.00669 32.4232 10.4307 28.6692 11.7538 24.0604C11.9259 23.4745 12.092 22.8708 12.2581 22.2491Z" fill="white"/>
<path d="M67.9833 28.7411C68.8792 28.7411 69.7158 28.9144 70.5108 29.2552C71.3 29.5959 71.9941 30.0622 72.5815 30.6599C73.1689 31.2517 73.6377 31.9511 73.9759 32.7462C74.3141 33.5412 74.4861 34.39 74.4861 35.2927C74.4861 36.1953 74.3141 37.0442 73.9759 37.8392C73.6377 38.6342 73.1749 39.3336 72.5815 39.9254C71.9941 40.5172 71.3 40.9895 70.5108 41.3302C69.7217 41.6709 68.8792 41.8443 67.9833 41.8443C67.0933 41.8443 66.2507 41.6709 65.4557 41.3302C64.6666 40.9895 63.9724 40.5232 63.385 39.9254C62.7976 39.3336 62.3289 38.6342 61.9907 37.8392C61.6525 37.0442 61.4804 36.1953 61.4804 35.2927C61.4804 34.39 61.6525 33.5472 61.9907 32.7462C62.3289 31.9511 62.7917 31.2517 63.385 30.6599C63.9783 30.0681 64.6666 29.5959 65.4557 29.2552C66.2507 28.9144 67.0933 28.7411 67.9833 28.7411ZM67.9833 30.899C67.4018 30.899 66.8441 31.0126 66.3219 31.2338C65.7998 31.455 65.3252 31.7778 64.9098 32.1962C64.4945 32.6147 64.1741 33.0929 63.9546 33.6189C63.735 34.145 63.6223 34.7069 63.6223 35.2927C63.6223 35.8785 63.735 36.4404 63.9546 36.9724C64.1741 37.5044 64.4945 37.9827 64.9098 38.4011C65.3252 38.8195 65.7939 39.1364 66.3219 39.3516C66.8441 39.5668 67.4018 39.6744 67.9833 39.6744C68.5647 39.6744 69.1224 39.5668 69.6505 39.3516C70.1786 39.1364 70.6532 38.8195 71.0686 38.4011C71.4839 37.9827 71.7983 37.5044 72.0179 36.9724C72.2315 36.4404 72.3383 35.8785 72.3383 35.2927C72.3383 34.7069 72.2315 34.145 72.0179 33.6189C71.8043 33.0929 71.4898 32.6147 71.0686 32.1962C70.6532 31.7778 70.1786 31.455 69.6505 31.2338C69.1224 31.0126 68.5707 30.899 67.9833 30.899Z" fill="white"/>
<path d="M80.8229 41.8442L75.6194 28.747H78.0342L81.9917 38.7238L85.6703 28.747H88.0496L83.2199 41.8442H80.8229Z" fill="white"/>
<path d="M93.0929 30.9887V34.1689H97.9404L98.4981 36.4165H93.0929V39.5966H99.6136V41.8443H90.862V28.7411H99.6136V30.9887H93.0929Z" fill="white"/>
<path d="M112.346 33.4395C112.346 33.9118 112.281 34.3661 112.151 34.7965C112.02 35.2269 111.842 35.6214 111.611 35.986C111.379 36.3507 111.1 36.6735 110.774 36.9664C110.448 37.2593 110.086 37.4984 109.688 37.6897L112.346 41.8442H109.688L107.327 38.156H105.802L106.71 35.9083H107.677C108.347 35.9083 108.923 35.6632 109.403 35.179C109.629 34.9399 109.801 34.6709 109.926 34.3721C110.05 34.0732 110.11 33.7623 110.11 33.4335C110.11 33.1108 110.05 32.7999 109.926 32.495C109.801 32.1962 109.629 31.9331 109.403 31.712C108.923 31.2278 108.347 30.9827 107.677 30.9827H105.037V32.2201V35.9083V38.156V41.8442H102.806V38.156V32.226V28.747H107.671C108.312 28.747 108.917 28.8725 109.481 29.1236C110.044 29.3747 110.537 29.7094 110.958 30.1338C111.379 30.5583 111.711 31.0544 111.961 31.6223C112.222 32.1842 112.346 32.7939 112.346 33.4395Z" fill="white"/>
<path d="M124.527 38.0066C124.527 38.5924 124.432 39.1244 124.243 39.5966C124.053 40.0689 123.78 40.4754 123.43 40.8041C123.08 41.1329 122.652 41.39 122.154 41.5693C121.656 41.7486 121.092 41.8383 120.475 41.8383C119.484 41.8383 118.606 41.6769 117.835 41.3601C117.063 41.0433 116.422 40.6786 115.924 40.2721L117.407 38.7777C117.799 39.1364 118.238 39.4113 118.731 39.6026C119.027 39.7222 119.306 39.7999 119.567 39.8358C119.828 39.8716 120.042 39.8896 120.208 39.8896C120.516 39.8896 120.801 39.8537 121.056 39.776C121.311 39.6983 121.537 39.5907 121.727 39.4592C122.13 39.1603 122.332 38.7657 122.332 38.2696C122.332 37.9707 122.225 37.7017 122.012 37.4626C121.845 37.2713 121.632 37.1159 121.371 36.9963C121.157 36.8768 120.932 36.7811 120.694 36.7094C120.457 36.6377 120.243 36.5719 120.054 36.5121C119.994 36.4882 119.941 36.4703 119.893 36.4643C119.846 36.4583 119.804 36.4464 119.769 36.4225C119.745 36.4225 119.709 36.4105 119.662 36.3866C119.413 36.3149 119.051 36.1893 118.582 36.01C118.113 35.8307 117.645 35.5856 117.182 35.2747C116.096 34.5455 115.556 33.6428 115.556 32.5788C115.556 31.8734 115.681 31.2756 115.924 30.7855C116.167 30.3013 116.488 29.9067 116.879 29.5959C117.271 29.291 117.71 29.0699 118.191 28.9384C118.671 28.8068 119.146 28.7411 119.609 28.7411C120.463 28.7411 121.187 28.8427 121.768 29.046C122.35 29.2492 122.819 29.4524 123.163 29.6557C123.341 29.7633 123.495 29.8709 123.62 29.9725C123.744 30.0741 123.857 30.1698 123.952 30.2535L122.433 31.8017C122.112 31.4789 121.786 31.2338 121.448 31.0664C120.95 30.8273 120.421 30.7078 119.876 30.7078C119.638 30.7078 119.401 30.7376 119.164 30.7974C118.926 30.8572 118.719 30.9349 118.541 31.0306C118.019 31.3534 117.757 31.7778 117.757 32.3098C117.757 32.6326 117.864 32.9076 118.078 33.1407C118.232 33.32 118.446 33.4814 118.719 33.6249C118.944 33.7444 119.181 33.8401 119.431 33.9118C119.68 33.9836 119.911 34.0493 120.125 34.1091L120.338 34.1629C120.398 34.1868 120.51 34.2227 120.677 34.2705C120.843 34.3183 121.039 34.39 121.264 34.4857C121.489 34.5813 121.739 34.6949 122.006 34.8264C122.273 34.9579 122.54 35.1133 122.801 35.2927C123.952 36.0578 124.527 36.9664 124.527 38.0066Z" fill="white"/>
<path d="M130.093 30.9469V34.0732H134.851L135.397 36.279H130.093V39.6445H136.495V41.8443H127.903V28.7411H136.495V30.9469H130.093Z" fill="white"/>
<path d="M153.381 41.8442H150.972L149.951 39.3993L148.966 37.1935L146.379 31.425L143.792 37.1935H147.109L148.094 39.3993H142.808L141.858 41.8442H139.449L145.175 28.747H147.584L153.381 41.8442Z" fill="white"/>
<path d="M164.666 38.0066C164.666 38.5924 164.571 39.1244 164.381 39.5966C164.191 40.0689 163.918 40.4754 163.568 40.8041C163.218 41.1329 162.791 41.39 162.293 41.5693C161.794 41.7486 161.231 41.8383 160.613 41.8383C159.623 41.8383 158.744 41.6769 157.973 41.3601C157.202 41.0433 156.561 40.6786 156.063 40.2721L157.546 38.7777C157.938 39.1364 158.377 39.4113 158.869 39.6026C159.166 39.7222 159.445 39.7999 159.706 39.8358C159.967 39.8716 160.18 39.8896 160.346 39.8896C160.655 39.8896 160.94 39.8537 161.195 39.776C161.45 39.6983 161.675 39.5907 161.865 39.4592C162.269 39.1603 162.471 38.7657 162.471 38.2696C162.471 37.9707 162.364 37.7017 162.15 37.4626C161.984 37.2713 161.77 37.1159 161.509 36.9963C161.296 36.8768 161.07 36.7811 160.833 36.7094C160.596 36.6377 160.382 36.5719 160.192 36.5121C160.133 36.4882 160.079 36.4703 160.032 36.4643C159.985 36.4583 159.943 36.4464 159.907 36.4225C159.884 36.4225 159.848 36.4105 159.801 36.3866C159.551 36.3149 159.189 36.1893 158.721 36.01C158.252 35.8307 157.783 35.5856 157.32 35.2747C156.235 34.5455 155.695 33.6428 155.695 32.5788C155.695 31.8734 155.819 31.2756 156.063 30.7855C156.306 30.3013 156.626 29.9067 157.018 29.5959C157.409 29.291 157.849 29.0699 158.329 28.9384C158.81 28.8068 159.284 28.7411 159.747 28.7411C160.602 28.7411 161.325 28.8427 161.907 29.046C162.488 29.2492 162.957 29.4524 163.301 29.6557C163.479 29.7633 163.633 29.8709 163.758 29.9725C163.883 30.0741 163.995 30.1698 164.09 30.2535L162.571 31.8017C162.251 31.4789 161.925 31.2338 161.586 31.0664C161.088 30.8273 160.56 30.7078 160.014 30.7078C159.777 30.7078 159.54 30.7376 159.302 30.7974C159.065 30.8572 158.857 30.9349 158.679 31.0306C158.157 31.3534 157.896 31.7778 157.896 32.3098C157.896 32.6326 158.003 32.9076 158.216 33.1407C158.371 33.32 158.584 33.4814 158.857 33.6249C159.083 33.7444 159.32 33.8401 159.569 33.9118C159.818 33.9836 160.05 34.0493 160.263 34.1091L160.477 34.1629C160.536 34.1868 160.649 34.2227 160.815 34.2705C160.981 34.3183 161.177 34.39 161.403 34.4857C161.628 34.5813 161.877 34.6949 162.144 34.8264C162.411 34.9579 162.678 35.1133 162.939 35.2927C164.084 36.0578 164.666 36.9664 164.666 38.0066Z" fill="white"/>
</svg>
