<svg width="40" height="40" viewBox="0 0 40 40" fill="none" xmlns="http://www.w3.org/2000/svg">
<path fill-rule="evenodd" clip-rule="evenodd" d="M39.0799 20C39.0799 18.61 38.9499 17.28 38.7199 16H19.9399V23.57H30.6699C30.2099 26.01 28.7999 28.09 26.6899 29.47V34.38H33.1299C36.8999 30.97 39.0799 25.96 39.0799 20Z" fill="#4285F4"/>
<path fill-rule="evenodd" clip-rule="evenodd" d="M19.9401 39.11C25.3201 39.11 29.8401 37.36 33.1301 34.37L26.6901 29.46C24.9001 30.63 22.6201 31.33 19.9401 31.33C14.7501 31.33 10.3501 27.89 8.78012 23.27H2.12012V28.34C5.40012 34.73 12.1401 39.11 19.9401 39.11Z" fill="#34A853"/>
<path fill-rule="evenodd" clip-rule="evenodd" d="M8.78 23.27C8.38 22.1 8.15 20.84 8.15 19.55C8.15 18.26 8.38 17.01 8.78 15.83V10.77H2.12C0.77 13.41 0 16.4 0 19.56C0 22.72 0.77 25.7 2.12 28.34L8.78 23.27Z" fill="#FBBC05"/>
<path fill-rule="evenodd" clip-rule="evenodd" d="M19.9401 7.78C22.8701 7.78 25.5001 8.77 27.5601 10.7L33.2801 5.09C29.8201 1.94 25.3101 0 19.9401 0C12.1401 0 5.40012 4.38 2.12012 10.77L8.78012 15.84C10.3501 11.22 14.7401 7.78 19.9401 7.78Z" fill="#EA4335"/>
</svg>
