<svg width="181" height="42" viewBox="0 0 181 42" fill="none" xmlns="http://www.w3.org/2000/svg">
<path d="M65.4144 4.10072H71.1815C72.2198 4.10072 73.2166 4.29799 74.1659 4.6985C75.1153 5.099 75.9637 5.66091 76.7054 6.39019C77.4292 7.14339 77.987 7.99222 78.3845 8.94866C78.7761 9.9051 78.9778 10.9094 78.9778 11.9555C78.9778 13.0315 78.782 14.0357 78.3845 14.9802C77.987 15.9247 77.4292 16.7735 76.7054 17.5207C75.9578 18.25 75.1153 18.8119 74.1659 19.2124C73.2166 19.6129 72.2198 19.8102 71.1815 19.8102H68.6361L66.9748 23.9109H71.1815C72.8072 23.9109 74.3439 23.6001 75.7917 22.9724C77.2394 22.3448 78.4972 21.4899 79.5711 20.4139C80.6451 19.332 81.4935 18.0647 82.1106 16.6061C82.7336 15.1476 83.0421 13.5993 83.0421 11.9614C83.0421 10.3235 82.7336 8.77531 82.1106 7.31674C81.4876 5.85817 80.6391 4.5909 79.5711 3.50893C78.4972 2.42696 77.2394 1.57214 75.7917 0.950459C74.3439 0.31682 72.8072 0 71.1815 0H61.3501V23.9109H65.4203V4.10072H65.4144Z" fill="#947B30"/>
<path d="M89.1474 14.0058H99.0144V23.9109H103.079V0H99.0144V9.9051H89.1474V0H85.0771V23.9109H89.1474V14.0058Z" fill="#947B30"/>
<path d="M121.905 23.9109L126.788 7.07165L132.045 23.9109H136.281L143.193 0H138.957L134.11 16.8393L128.853 0H124.587L119.739 16.8393L114.482 0H110.21L117.669 23.9109H121.905Z" fill="#947B30"/>
<path d="M149.571 0L138.856 23.9109H143.336L145.163 19.8102H154.994L153.161 15.7155H146.99L151.808 4.98543L156.626 15.7155L158.454 19.8102L160.281 23.9109H164.761L154.045 0H149.571Z" fill="#947B30"/>
<path d="M176.182 0L169.436 10.8316L162.69 0H157.878L167.401 15.2731V23.9109H171.471V15.2731L171.845 14.6873L181 0H176.182Z" fill="#947B30"/>
<path d="M27.2812 41.4379C27.2753 41.426 27.2753 41.42 27.2694 41.408C27.2278 41.3064 27.1863 41.2048 27.1448 41.1091C27.1032 41.0015 27.0558 40.8999 27.0083 40.7983C26.9549 40.6907 26.9074 40.5951 26.854 40.4934C26.8125 40.4157 26.771 40.338 26.7294 40.2603C26.676 40.1706 26.6286 40.087 26.5811 40.0033C26.0293 39.0767 25.3292 38.2458 24.5104 37.5524C24.4214 37.4747 24.3265 37.397 24.2375 37.3252C24.2375 37.3252 24.2375 37.3252 24.2315 37.3193C24.1485 37.2535 24.0595 37.1878 23.9705 37.122C23.8637 37.0443 23.7628 36.9726 23.656 36.9008C23.5611 36.8411 23.4662 36.7753 23.3712 36.7155C23.2822 36.6617 23.1992 36.6079 23.1102 36.5601C22.9915 36.4884 22.8728 36.4226 22.7542 36.3628C22.6474 36.309 22.5465 36.2552 22.4338 36.2014C22.3685 36.1715 22.3032 36.1417 22.2439 36.1118C22.1608 36.0699 22.0718 36.0341 21.9888 35.9982C21.8998 35.9623 21.8048 35.9205 21.7099 35.8846C21.5082 35.8069 21.3064 35.7352 21.0988 35.6754C21.0157 35.6455 20.9267 35.6216 20.8437 35.5977C20.3453 35.4602 19.835 35.3646 19.3129 35.3048C18.9687 35.2689 18.6305 35.251 18.2805 35.251C18.0491 35.251 17.8296 35.257 17.6041 35.2809C17.4736 35.2928 17.349 35.2988 17.2244 35.3167C17.1116 35.3287 16.993 35.3466 16.8802 35.3586C16.815 35.3646 16.7438 35.3765 16.6785 35.3885C16.5005 35.4184 16.3284 35.4482 16.1564 35.4901C16.0436 35.514 15.9309 35.5439 15.8241 35.5738C15.747 35.5917 15.6698 35.6156 15.5986 35.6395C15.4266 35.6814 15.2664 35.7412 15.1062 35.7949C15.0291 35.8248 14.946 35.8547 14.8689 35.8846C14.7324 35.9384 14.5959 35.9922 14.4654 36.046C14.3823 36.0819 14.3052 36.1177 14.2221 36.1536C14.1865 36.1715 14.1569 36.1835 14.1213 36.2014C14.056 36.2313 13.9848 36.2672 13.9195 36.3031C13.7771 36.3748 13.6407 36.4525 13.5042 36.5302C13.4211 36.5721 13.344 36.6199 13.2609 36.6737C13.2491 36.6797 13.2313 36.6856 13.2253 36.6976C13.1423 36.7514 13.0533 36.8052 12.9702 36.859C12.8515 36.9367 12.7329 37.0204 12.6202 37.1041C12.543 37.1579 12.4718 37.2176 12.3947 37.2774C12.2998 37.3432 12.2108 37.4209 12.1158 37.4986C12.0268 37.5763 11.9378 37.648 11.8548 37.7258C11.6827 37.8812 11.5166 38.0426 11.3564 38.21C11.1131 38.461 10.8876 38.7181 10.674 38.993C10.6028 39.0827 10.5316 39.1783 10.4664 39.274C10.4011 39.3637 10.3299 39.4593 10.2646 39.5609C10.2112 39.6386 10.1578 39.7223 10.1044 39.806C10.0807 39.8419 10.0629 39.8718 10.0392 39.9076C9.93238 40.087 9.82558 40.2723 9.73065 40.4576C9.68912 40.5413 9.64759 40.619 9.60605 40.7027C9.48739 40.9418 9.38059 41.1928 9.27972 41.4439C9.24412 41.5395 9.20853 41.6352 9.17293 41.7368C9.17293 41.7428 9.16699 41.7488 9.16699 41.7488H27.3702C27.3702 41.7428 27.3643 41.7368 27.3643 41.7249C27.3524 41.6232 27.3168 41.5276 27.2812 41.4379Z" fill="#947B30"/>
<path d="M27.6193 0H20.624C20.6656 0.543973 20.713 1.08197 20.7546 1.61399C20.7961 2.05036 20.8376 2.48076 20.8792 2.90518C20.9029 3.1682 20.9326 3.42524 20.9563 3.68228C20.9919 4.02301 21.0275 4.35776 21.069 4.69252C21.1521 5.43973 21.2411 6.17499 21.3301 6.8983C21.4547 7.84278 21.5852 8.77531 21.7217 9.68392C21.781 10.0844 21.8463 10.479 21.9056 10.8795C21.9115 10.8914 21.9115 10.8974 21.9115 10.9153C21.9709 11.2919 22.0361 11.6625 22.1014 12.0332C22.1667 12.4277 22.2319 12.8103 22.3031 13.1869C22.3387 13.3961 22.3803 13.6113 22.4159 13.8145C22.671 15.1595 22.938 16.4567 23.2169 17.712C23.2762 17.9691 23.3296 18.2201 23.3889 18.4712C23.4542 18.7521 23.5195 19.0271 23.5788 19.3021C23.7093 19.852 23.8399 20.39 23.9763 20.9221C24.0356 21.1432 24.089 21.3704 24.1484 21.5916C24.4272 22.6735 24.718 23.7137 25.0146 24.7119C25.2104 25.3874 25.4122 26.045 25.6139 26.6846C25.9877 27.8682 26.3674 28.98 26.7353 30.0261C26.8065 30.2294 26.8777 30.4266 26.9489 30.6239C27.1625 31.2157 27.3761 31.7836 27.5897 32.3335C27.6609 32.5188 27.7321 32.6982 27.8033 32.8775C27.8567 33.021 27.916 33.1585 27.9694 33.296C28.0525 33.5052 28.1355 33.7084 28.2186 33.9117C28.3195 34.1508 28.4144 34.3899 28.5093 34.617C28.5983 34.8263 28.6873 35.0355 28.7763 35.2327C28.9603 35.6572 29.1383 36.0696 29.3163 36.4522C29.3934 36.6196 29.4646 36.781 29.5417 36.9424C29.6248 37.1217 29.7019 37.2891 29.779 37.4565C29.8562 37.6298 29.9333 37.7852 30.0104 37.9466C30.0876 38.108 30.1647 38.2575 30.2359 38.4129C30.313 38.5683 30.3842 38.7118 30.4495 38.8552C30.5207 38.9987 30.5919 39.1362 30.6572 39.2677C30.8589 39.6682 31.0488 40.0269 31.2268 40.3497C31.4344 40.7382 31.6243 41.067 31.7786 41.342C35.825 40.5051 39.4384 38.4846 42.2508 35.6512C46.0006 31.8733 48.3205 26.6547 48.3205 20.8922C48.3383 9.34319 39.0646 0 27.6193 0Z" fill="#947B30"/>
<path d="M12.2581 22.2491C12.3353 21.9562 12.4124 21.6573 12.4895 21.3584C12.7862 20.2346 13.065 19.063 13.338 17.8495C13.4092 17.5267 13.4804 17.2039 13.5516 16.8811C13.6228 16.5523 13.694 16.2295 13.7592 15.8948C13.8482 15.4524 13.9372 15.0101 14.0262 14.5617C14.1034 14.1672 14.1805 13.7667 14.2517 13.3602C14.3288 12.9597 14.4 12.5532 14.4653 12.1408C14.5365 11.7283 14.6077 11.3099 14.673 10.8914C14.8094 10.0545 14.94 9.19973 15.0646 8.32698C15.1239 7.8906 15.1892 7.45423 15.2426 7.0059C15.296 6.60539 15.3494 6.19891 15.3968 5.7984C15.4087 5.72666 15.4146 5.64895 15.4265 5.5832C15.4799 5.15878 15.5273 4.72838 15.5748 4.29799C15.6104 3.98715 15.6401 3.6763 15.6757 3.36546C15.7113 3.03669 15.7409 2.70193 15.7765 2.3612C15.8062 2.04438 15.8359 1.72159 15.8596 1.40477C15.8952 1.05208 15.9189 0.699394 15.9486 0.346708C15.9545 0.227154 15.9605 0.113577 15.9723 0H0V41.7425H4.53301C5.04327 40.8996 6.11126 39.0047 7.41064 36.0935C7.52338 35.8365 7.64204 35.5735 7.76071 35.2985C9.00669 32.4232 10.4307 28.6692 11.7538 24.0604C11.9259 23.4745 12.092 22.8708 12.2581 22.2491Z" fill="#947B30"/>
<path d="M67.9833 28.7412C68.8792 28.7412 69.7158 28.9146 70.5109 29.2553C71.3 29.596 71.9942 30.0623 72.5816 30.6601C73.169 31.2519 73.6377 31.9512 73.9759 32.7463C74.3141 33.5413 74.4862 34.3902 74.4862 35.2928C74.4862 36.1954 74.3141 37.0443 73.9759 37.8393C73.6377 38.6344 73.1749 39.3337 72.5816 39.9255C71.9942 40.5173 71.3 40.9896 70.5109 41.3303C69.7218 41.671 68.8792 41.8444 67.9833 41.8444C67.0933 41.8444 66.2508 41.671 65.4558 41.3303C64.6666 40.9896 63.9724 40.5233 63.385 39.9255C62.7977 39.3337 62.3289 38.6344 61.9907 37.8393C61.6525 37.0443 61.4805 36.1954 61.4805 35.2928C61.4805 34.3902 61.6525 33.5473 61.9907 32.7463C62.3289 31.9512 62.7917 31.2519 63.385 30.6601C63.9784 30.0683 64.6666 29.596 65.4558 29.2553C66.2508 28.9146 67.0933 28.7412 67.9833 28.7412ZM67.9833 30.8992C67.4019 30.8992 66.8441 31.0127 66.322 31.2339C65.7999 31.4551 65.3252 31.7779 64.9099 32.1963C64.4946 32.6148 64.1742 33.093 63.9546 33.619C63.7351 34.1451 63.6224 34.707 63.6224 35.2928C63.6224 35.8786 63.7351 36.4405 63.9546 36.9725C64.1742 37.5046 64.4946 37.9828 64.9099 38.4012C65.3252 38.8197 65.7939 39.1365 66.322 39.3517C66.8441 39.5669 67.4019 39.6745 67.9833 39.6745C68.5648 39.6745 69.1225 39.5669 69.6506 39.3517C70.1786 39.1365 70.6533 38.8197 71.0686 38.4012C71.4839 37.9828 71.7984 37.5046 72.0179 36.9725C72.2315 36.4405 72.3383 35.8786 72.3383 35.2928C72.3383 34.707 72.2315 34.1451 72.0179 33.619C71.8043 33.093 71.4899 32.6148 71.0686 32.1963C70.6533 31.7779 70.1786 31.4551 69.6506 31.2339C69.1225 31.0127 68.5707 30.8992 67.9833 30.8992Z" fill="#947B30"/>
<path d="M80.8231 41.8443L75.6196 28.7471H78.0345L81.992 38.7239L85.6706 28.7471H88.0498L83.2201 41.8443H80.8231Z" fill="#947B30"/>
<path d="M93.0927 30.9888V34.169H97.9402L98.4979 36.4166H93.0927V39.5968H99.6134V41.8444H90.8618V28.7412H99.6134V30.9888H93.0927Z" fill="#947B30"/>
<path d="M112.346 33.4396C112.346 33.9118 112.281 34.3661 112.151 34.7965C112.02 35.2269 111.842 35.6215 111.611 35.9861C111.379 36.3507 111.1 36.6735 110.774 36.9664C110.448 37.2594 110.086 37.4985 109.688 37.6898L112.346 41.8443H109.688L107.327 38.156H105.802L106.71 35.9084H107.677C108.347 35.9084 108.923 35.6633 109.403 35.1791C109.629 34.94 109.801 34.671 109.926 34.3721C110.05 34.0732 110.11 33.7624 110.11 33.4336C110.11 33.1108 110.05 32.8 109.926 32.4951C109.801 32.1962 109.629 31.9332 109.403 31.712C108.923 31.2278 108.347 30.9827 107.677 30.9827H105.037V32.2201V35.9084V38.156V41.8443H102.806V38.156V32.2261V28.7471H107.671C108.312 28.7471 108.917 28.8726 109.481 29.1237C110.044 29.3747 110.537 29.7095 110.958 30.1339C111.379 30.5583 111.711 31.0545 111.961 31.6224C112.222 32.1843 112.346 32.794 112.346 33.4396Z" fill="#947B30"/>
<path d="M124.527 38.0067C124.527 38.5925 124.432 39.1245 124.242 39.5968C124.053 40.069 123.78 40.4755 123.43 40.8043C123.08 41.133 122.652 41.3901 122.154 41.5694C121.656 41.7487 121.092 41.8384 120.475 41.8384C119.484 41.8384 118.606 41.677 117.835 41.3602C117.063 41.0434 116.422 40.6787 115.924 40.2723L117.407 38.7778C117.799 39.1365 118.238 39.4115 118.73 39.6027C119.027 39.7223 119.306 39.8 119.567 39.8359C119.828 39.8717 120.042 39.8897 120.208 39.8897C120.516 39.8897 120.801 39.8538 121.056 39.7761C121.311 39.6984 121.537 39.5908 121.727 39.4593C122.13 39.1604 122.332 38.7659 122.332 38.2697C122.332 37.9708 122.225 37.7018 122.012 37.4627C121.845 37.2714 121.632 37.116 121.371 36.9965C121.157 36.8769 120.932 36.7813 120.694 36.7095C120.457 36.6378 120.243 36.572 120.054 36.5123C119.994 36.4883 119.941 36.4704 119.893 36.4644C119.846 36.4585 119.804 36.4465 119.769 36.4226C119.745 36.4226 119.709 36.4106 119.662 36.3867C119.413 36.315 119.051 36.1895 118.582 36.0101C118.113 35.8308 117.645 35.5857 117.182 35.2749C116.096 34.5456 115.556 33.6429 115.556 32.5789C115.556 31.8735 115.681 31.2758 115.924 30.7856C116.167 30.3014 116.488 29.9069 116.879 29.596C117.271 29.2912 117.71 29.07 118.191 28.9385C118.671 28.807 119.146 28.7412 119.609 28.7412C120.463 28.7412 121.187 28.8428 121.768 29.0461C122.35 29.2493 122.818 29.4526 123.163 29.6558C123.341 29.7634 123.495 29.871 123.619 29.9726C123.744 30.0742 123.857 30.1699 123.952 30.2536L122.433 31.8018C122.112 31.479 121.786 31.2339 121.448 31.0665C120.949 30.8274 120.421 30.7079 119.876 30.7079C119.638 30.7079 119.401 30.7378 119.164 30.7975C118.926 30.8573 118.719 30.935 118.541 31.0307C118.018 31.3535 117.757 31.7779 117.757 32.3099C117.757 32.6327 117.864 32.9077 118.078 33.1408C118.232 33.3201 118.446 33.4815 118.719 33.625C118.944 33.7446 119.181 33.8402 119.431 33.9119C119.68 33.9837 119.911 34.0494 120.125 34.1092L120.338 34.163C120.398 34.1869 120.51 34.2228 120.677 34.2706C120.843 34.3184 121.038 34.3902 121.264 34.4858C121.489 34.5815 121.739 34.695 122.006 34.8265C122.273 34.958 122.54 35.1135 122.801 35.2928C123.952 36.058 124.527 36.9666 124.527 38.0067Z" fill="#947B30"/>
<path d="M130.093 30.947V34.0733H134.851L135.397 36.2791H130.093V39.6446H136.495V41.8444H127.903V28.7412H136.495V30.947H130.093Z" fill="#947B30"/>
<path d="M153.381 41.8443H150.972L149.951 39.3994L148.966 37.1936L146.379 31.4251L143.792 37.1936H147.109L148.094 39.3994H142.807L141.858 41.8443H139.449L145.175 28.7471H147.584L153.381 41.8443Z" fill="#947B30"/>
<path d="M164.666 38.0067C164.666 38.5925 164.571 39.1245 164.381 39.5968C164.191 40.069 163.918 40.4755 163.568 40.8043C163.218 41.133 162.791 41.3901 162.293 41.5694C161.794 41.7487 161.231 41.8384 160.614 41.8384C159.623 41.8384 158.745 41.677 157.973 41.3602C157.202 41.0434 156.561 40.6787 156.063 40.2723L157.546 38.7778C157.938 39.1365 158.377 39.4115 158.869 39.6027C159.166 39.7223 159.445 39.8 159.706 39.8359C159.967 39.8717 160.18 39.8897 160.346 39.8897C160.655 39.8897 160.94 39.8538 161.195 39.7761C161.45 39.6984 161.676 39.5908 161.865 39.4593C162.269 39.1604 162.471 38.7659 162.471 38.2697C162.471 37.9708 162.364 37.7018 162.15 37.4627C161.984 37.2714 161.77 37.116 161.509 36.9965C161.296 36.8769 161.07 36.7813 160.833 36.7095C160.596 36.6378 160.382 36.572 160.192 36.5123C160.133 36.4883 160.08 36.4704 160.032 36.4644C159.985 36.4585 159.943 36.4465 159.907 36.4226C159.884 36.4226 159.848 36.4106 159.801 36.3867C159.551 36.315 159.19 36.1895 158.721 36.0101C158.252 35.8308 157.783 35.5857 157.321 35.2749C156.235 34.5456 155.695 33.6429 155.695 32.5789C155.695 31.8735 155.819 31.2758 156.063 30.7856C156.306 30.3014 156.626 29.9069 157.018 29.596C157.41 29.2912 157.849 29.07 158.329 28.9385C158.81 28.807 159.284 28.7412 159.747 28.7412C160.602 28.7412 161.325 28.8428 161.907 29.0461C162.488 29.2493 162.957 29.4526 163.301 29.6558C163.479 29.7634 163.634 29.871 163.758 29.9726C163.883 30.0742 163.995 30.1699 164.09 30.2536L162.571 31.8018C162.251 31.479 161.925 31.2339 161.587 31.0665C161.088 30.8274 160.56 30.7079 160.014 30.7079C159.777 30.7079 159.54 30.7378 159.302 30.7975C159.065 30.8573 158.857 30.935 158.679 31.0307C158.157 31.3535 157.896 31.7779 157.896 32.3099C157.896 32.6327 158.003 32.9077 158.216 33.1408C158.371 33.3201 158.584 33.4815 158.857 33.625C159.083 33.7446 159.32 33.8402 159.569 33.9119C159.818 33.9837 160.05 34.0494 160.263 34.1092L160.477 34.163C160.536 34.1869 160.649 34.2228 160.815 34.2706C160.981 34.3184 161.177 34.3902 161.403 34.4858C161.628 34.5815 161.877 34.695 162.144 34.8265C162.411 34.958 162.678 35.1135 162.939 35.2928C164.084 36.058 164.666 36.9666 164.666 38.0067Z" fill="#947B30"/>
</svg>
