<svg width="35" height="27" viewBox="0 0 35 27" fill="none" xmlns="http://www.w3.org/2000/svg">
<path d="M35 7.79478C35 13.104 35 18.4123 35 23.7214C34.9872 23.7395 34.9671 23.7558 34.9616 23.7758C34.4977 25.6137 33.3708 26.4874 31.4594 26.4874C22.1519 26.4874 12.8453 26.4874 3.53777 26.4874C3.42362 26.4874 3.30947 26.4892 3.19623 26.4847C1.36066 26.4204 0.00544491 25.0515 0.00361847 23.2316C-0.00277406 18.1714 0.000878816 13.1121 0.00270525 8.05191C0.00270525 7.97042 0.0191432 7.88985 0.0301018 7.79297C0.0912874 7.82647 0.122337 7.84005 0.150647 7.85906C4.87746 10.9836 9.60337 14.108 14.3302 17.2325C16.4507 18.6341 18.5502 18.6368 20.6725 17.2343C24.8979 14.4439 29.1207 11.6508 33.3461 8.86042C33.8931 8.50008 34.4484 8.14969 35 7.79478Z" fill="#9D7B30"/>
<path d="M35.0001 4.13453C34.8695 4.48039 34.8001 4.86699 34.5947 5.16124C34.3152 5.56142 33.9855 5.96975 33.5846 6.23775C28.8332 9.4057 24.0698 12.5555 19.2964 15.6918C18.1193 16.465 16.8773 16.4623 15.7002 15.6891C10.9186 12.5456 6.14792 9.38578 1.37727 6.22507C0.232092 5.46636 -0.241869 4.15174 0.122505 2.84074C0.494185 1.50076 1.65215 0.586323 3.09412 0.493974C3.19548 0.487636 3.29868 0.486731 3.40096 0.486731C12.7998 0.486731 22.1977 0.485825 31.5966 0.486731C33.1536 0.486731 34.37 1.31244 34.8303 2.67415C34.8942 2.86428 34.9444 3.05984 35.0001 3.25269C35.0001 3.54694 35.0001 3.84028 35.0001 4.13453Z" fill="#9D7B30"/>
</svg>
