<svg width="34" height="43" viewBox="0 0 34 43" fill="none" xmlns="http://www.w3.org/2000/svg">
<path d="M6.1241 17.4787C6.1241 17.2678 6.1241 17.1034 6.1241 16.9391C6.1241 14.9191 6.12038 12.8991 6.12534 10.8803C6.13899 5.46423 9.90815 1.05998 15.3081 0.143813C21.0096 -0.822645 26.7471 3.19404 27.6829 8.82598C27.7995 9.5312 27.8554 10.2548 27.8641 10.9699C27.8877 12.9592 27.8728 14.9485 27.8728 16.9366C27.8728 17.101 27.8728 17.2653 27.8728 17.5069C28.5144 17.5069 29.1213 17.4468 29.7108 17.5167C32.2525 17.8197 33.9813 19.755 33.9938 22.2938C34.0062 24.9258 33.9962 27.5578 33.9962 30.1886C33.9962 32.8047 33.9987 35.422 33.9962 38.038C33.9925 40.9926 31.9671 42.9991 28.986 42.9991C20.9959 43.0003 13.0046 43.0003 5.01458 42.9991C2.03351 42.9991 0.0031027 40.9914 0.00186162 38.0405C-0.000620539 32.8378 -0.000620539 27.6363 0.00186162 22.4337C0.0031027 19.4938 2.04468 17.4824 5.02451 17.4775C5.37697 17.4787 5.7282 17.4787 6.1241 17.4787ZM23.7747 17.4554C23.7809 17.3266 23.7896 17.2236 23.7896 17.1194C23.7896 14.9767 23.8045 12.8353 23.7859 10.6927C23.7524 7.00958 20.739 4.06238 17.0195 4.05379C13.2764 4.04521 10.242 6.99732 10.2122 10.6976C10.1948 12.8243 10.2085 14.951 10.2085 17.0777C10.2085 17.1954 10.2085 17.3131 10.2085 17.4542C14.7409 17.4554 19.2274 17.4554 23.7747 17.4554ZM16.9811 32.265C18.1166 32.2712 19.0288 31.3893 19.0388 30.2769C19.0487 29.1731 18.1365 28.2545 17.0158 28.241C15.9038 28.2275 14.968 29.1388 14.9593 30.2414C14.9507 31.355 15.8529 32.2577 16.9811 32.265ZM11.5526 30.2585C11.5526 29.1424 10.6454 28.2398 9.52218 28.241C8.39776 28.241 7.49301 29.1412 7.49425 30.2585C7.49425 31.3844 8.38535 32.2663 9.52218 32.2663C10.6553 32.2663 11.5538 31.3783 11.5526 30.2585ZM24.4883 32.265C25.6227 32.2601 26.5101 31.3709 26.5038 30.245C26.4976 29.1265 25.5855 28.2299 24.4635 28.2398C23.3379 28.2496 22.4368 29.1547 22.4443 30.2696C22.4517 31.3918 23.3515 32.2699 24.4883 32.265Z" fill="#9D7B30"/>
</svg>
