<svg width="22" height="21" viewBox="0 0 22 21" fill="none" xmlns="http://www.w3.org/2000/svg">
<path d="M11.3332 5.12567C9.91001 5.12567 8.55622 5.69261 7.54956 6.68766C6.54289 7.69427 5.98749 9.04799 5.98749 10.4711C5.98749 11.8943 6.55446 13.248 7.54956 14.2546C8.55622 15.2612 9.91001 15.8166 11.3332 15.8166C12.7564 15.8166 14.1102 15.2496 15.1169 14.2546C16.1236 13.248 16.679 11.8943 16.679 10.4711C16.679 9.04799 16.112 7.69427 15.1169 6.68766C14.1218 5.68104 12.7564 5.12567 11.3332 5.12567ZM11.3332 13.9538C10.4076 13.9538 9.52818 13.5835 8.88021 12.9356C8.23224 12.2877 7.86196 11.3967 7.86196 10.4827C7.86196 9.56865 8.23224 8.67774 8.88021 8.0298C9.52818 7.38187 10.4191 7.01162 11.3332 7.01162C12.2589 7.01162 13.1383 7.38187 13.7863 8.0298C14.4342 8.67774 14.8045 9.56865 14.8045 10.4827C14.8045 11.3967 14.4342 12.2877 13.7863 12.9356C13.1383 13.5835 12.2589 13.9538 11.3332 13.9538Z" fill="white"/>
<path d="M16.8988 6.17856C17.5931 6.17856 18.1485 5.62318 18.1485 4.92897C18.1485 4.23475 17.5931 3.67938 16.8988 3.67938C16.2046 3.67938 15.6492 4.23475 15.6492 4.92897C15.6492 5.62318 16.2161 6.17856 16.8988 6.17856Z" fill="white"/>
<path d="M21.2148 3.65624C20.9487 2.96202 20.5321 2.33723 20.0114 1.81657C19.4907 1.2959 18.8543 0.879375 18.1716 0.61326C17.3617 0.312433 16.5054 0.15045 15.6376 0.127309C14.5268 0.0810283 14.1681 0.069458 11.3448 0.069458C8.52153 0.069458 8.16283 0.069458 7.05203 0.127309C6.18421 0.13888 5.32797 0.312433 4.52957 0.61326C3.83532 0.879375 3.21049 1.28433 2.6898 1.81657C2.16911 2.3488 1.75257 2.97359 1.48644 3.65624C1.18559 4.46615 1.02359 5.32235 1.00045 6.19012C0.954169 7.30086 0.93103 7.65954 0.93103 10.4827C0.93103 13.3058 0.931027 13.6645 1.00045 14.7752C1.01202 15.643 1.18559 16.4992 1.48644 17.3091C1.75257 18.0033 2.16911 18.6281 2.6898 19.1488C3.21049 19.6695 3.84689 20.086 4.52957 20.3521C5.33954 20.6645 6.19578 20.8496 7.05203 20.8728C8.16283 20.919 8.52153 20.9306 11.3448 20.9306C14.1681 20.9306 14.5384 20.9306 15.6376 20.8728C16.5054 20.8496 17.3617 20.6876 18.1716 20.3868C18.8659 20.1207 19.4907 19.7042 20.0114 19.1835C20.5321 18.6628 20.9487 18.0265 21.2148 17.3438C21.5156 16.5339 21.6776 15.6777 21.7008 14.81C21.747 13.6992 21.7702 13.3405 21.7702 10.5174C21.7702 7.69425 21.7702 7.33557 21.7008 6.22483C21.6892 5.34549 21.5272 4.47772 21.2148 3.65624ZM19.8031 14.6943C19.7916 15.3653 19.6759 16.0248 19.4444 16.6496C19.2709 17.1009 19.0047 17.5058 18.6692 17.8529C18.3336 18.1885 17.9171 18.4546 17.4658 18.6281C16.8526 18.8595 16.193 18.9752 15.5335 18.9868C14.4343 19.0331 14.1218 19.0562 11.3101 19.0562C8.48682 19.0562 8.19754 19.0562 7.08674 18.9868C6.4272 18.9752 5.77923 18.8595 5.1544 18.6281C4.70314 18.4546 4.28659 18.1885 3.95103 17.8529C3.6039 17.5174 3.33777 17.1009 3.16421 16.6496C2.93279 16.0364 2.81709 15.3769 2.80552 14.7174C2.75923 13.6182 2.74766 13.3058 2.74766 10.4943C2.74766 7.67111 2.74766 7.38186 2.80552 6.25954C2.81709 5.58847 2.93279 4.92896 3.16421 4.30417C3.52291 3.39012 4.2403 2.67276 5.1544 2.32566C5.76766 2.09425 6.4272 1.97855 7.08674 1.96698C8.18597 1.9207 8.49839 1.90913 11.3101 1.90913C14.1334 1.90913 14.4227 1.90913 15.5335 1.96698C16.193 1.97855 16.8526 2.09425 17.4658 2.32566C17.9171 2.49921 18.3221 2.76533 18.6692 3.11243C19.0047 3.44797 19.2709 3.8645 19.456 4.31574C19.6874 4.92896 19.8031 5.58847 19.8147 6.24797C19.861 7.34714 19.8726 7.65954 19.8726 10.4711C19.8726 13.2943 19.8726 13.5951 19.8263 14.6943H19.8031Z" fill="white"/>
</svg>
