<svg width="17" height="19" viewBox="0 0 17 19" fill="none" xmlns="http://www.w3.org/2000/svg">
<path d="M2.53641 5.45622C3.8092 5.45622 4.85058 4.4149 4.85058 3.14217C4.85058 1.86945 3.8092 0.828125 2.53641 0.828125C1.26361 0.828125 0.222229 1.86945 0.222229 3.14217C0.222229 4.4149 1.26361 5.45622 2.53641 5.45622Z" fill="white"/>
<path d="M0.800781 18.1835V6.61322H4.27205V18.1835H0.800781Z" fill="white"/>
<path d="M17 9.77192C17 7.71242 15.3222 6.03473 13.2626 6.03473C11.7584 6.03473 10.4277 6.79837 9.65247 7.95539L9.4789 6.61324H6.58618V18.1835H10.0574V10.6628C10.0574 9.7025 10.8327 8.92729 11.7931 8.92729C12.7535 8.92729 13.5287 9.7025 13.5287 10.6628V18.1835H17V9.77192Z" fill="white"/>
</svg>
